<?xml version="1.0" encoding="UTF-8"?>
<svg id="a" data-name="Layer 1" xmlns="http://www.w3.org/2000/svg" xmlns:xlink="http://www.w3.org/1999/xlink" viewBox="0 0 1292.12 219.81">
  <defs>
    <linearGradient id="b" x1="140.74" y1="161.17" x2="211.76" y2="90.15" gradientUnits="userSpaceOnUse">
      <stop offset="0" stop-color="#f26ab7"/>
      <stop offset="1" stop-color="#f596c2"/>
    </linearGradient>
    <linearGradient id="c" x1="29.48" y1="161.29" x2="100.74" y2="90.03" gradientUnits="userSpaceOnUse">
      <stop offset="0" stop-color="#43b6ab"/>
      <stop offset="1" stop-color="#73faeb"/>
    </linearGradient>
    <linearGradient id="d" x1="45.35" y1="61.73" x2="86.27" y2="20.81" xlink:href="#c"/>
    <linearGradient id="e" x1="19.7" y1="43.72" x2="29.93" y2="43.72" gradientUnits="userSpaceOnUse">
      <stop offset="0" stop-color="#f26ab7"/>
      <stop offset=".5" stop-color="#fff"/>
      <stop offset=".52" stop-color="#ecfcfa"/>
      <stop offset=".6" stop-color="#bff5f0"/>
      <stop offset=".69" stop-color="#9af0e8"/>
      <stop offset=".77" stop-color="#7dece1"/>
      <stop offset=".84" stop-color="#69e9dc"/>
      <stop offset=".92" stop-color="#5de7d9"/>
      <stop offset="1" stop-color="#59e7d9"/>
    </linearGradient>
    <linearGradient id="f" x1="99.89" y1="43.72" x2="110.12" y2="43.72" gradientUnits="userSpaceOnUse">
      <stop offset="0" stop-color="#59e7d9"/>
      <stop offset=".07" stop-color="#5de7da"/>
      <stop offset=".15" stop-color="#6be9dd"/>
      <stop offset=".23" stop-color="#82ece2"/>
      <stop offset=".31" stop-color="#a2f1e9"/>
      <stop offset=".4" stop-color="#cbf7f3"/>
      <stop offset=".49" stop-color="#fdfefe"/>
      <stop offset=".5" stop-color="#fff"/>
      <stop offset=".5" stop-color="#fefdfe"/>
      <stop offset=".58" stop-color="#fad0e8"/>
      <stop offset=".67" stop-color="#f7abd6"/>
      <stop offset=".75" stop-color="#f58ec8"/>
      <stop offset=".84" stop-color="#f37abe"/>
      <stop offset=".92" stop-color="#f26eb8"/>
      <stop offset="1" stop-color="#f26ab7"/>
    </linearGradient>
    <linearGradient id="g" x1="131.2" y1="43.72" x2="141.43" y2="43.72" xlink:href="#f"/>
    <linearGradient id="h" x1="211.39" y1="43.72" x2="221.62" y2="43.72" xlink:href="#e"/>
    <linearGradient id="i" x1="86.78" y1="218.81" x2="112.63" y2="192.96" xlink:href="#c"/>
    <linearGradient id="j" x1="16.4" y1="215.45" x2="34.79" y2="197.05" xlink:href="#c"/>
    <linearGradient id="k" x1="53.85" y1="26.15" x2="79.46" y2=".54" xlink:href="#c"/>
    <linearGradient id="l" x1="-3" y1="148.22" x2="29.25" y2="115.97" xlink:href="#c"/>
    <linearGradient id="m" x1="134.92" y1="214.71" x2="151.23" y2="198.4" xlink:href="#b"/>
    <linearGradient id="n" x1="202.64" y1="220.08" x2="231.93" y2="190.79" xlink:href="#b"/>
    <linearGradient id="o" x1="165.11" y1="26.15" x2="190.72" y2=".54" xlink:href="#b"/>
    <linearGradient id="p" x1="156.61" y1="61.73" x2="197.53" y2="20.81" xlink:href="#b"/>
    <linearGradient id="q" x1="204.48" y1="154.33" x2="249.03" y2="109.79" xlink:href="#b"/>
    <linearGradient id="r" x1="51.74" y1="79.39" x2="78.57" y2="52.56" xlink:href="#b"/>
    <linearGradient id="s" data-name="New Gradient Swatch 2" x1="55.25" y1="133.08" x2="55.27" y2="133.08" gradientUnits="userSpaceOnUse">
      <stop offset="0" stop-color="#271a24"/>
      <stop offset="1" stop-color="#3a1046"/>
    </linearGradient>
    <linearGradient id="t" data-name="New Gradient Swatch 2" x1="55.28" y1="133.05" x2="55.3" y2="133.05" xlink:href="#s"/>
    <linearGradient id="u" data-name="New Gradient Swatch 2" x1="55.32" y1="133.04" x2="55.33" y2="133.04" xlink:href="#s"/>
    <linearGradient id="v" data-name="New Gradient Swatch 2" x1="55.35" y1="133.04" x2="55.37" y2="133.04" xlink:href="#s"/>
    <linearGradient id="w" data-name="New Gradient Swatch 2" x1="63.11" y1="114.84" x2="63.13" y2="114.84" xlink:href="#s"/>
    <linearGradient id="x" data-name="New Gradient Swatch 2" x1="63.08" y1="114.81" x2="63.09" y2="114.81" xlink:href="#s"/>
    <linearGradient id="y" data-name="New Gradient Swatch 2" x1="63.06" y1="114.74" x2="63.07" y2="114.74" xlink:href="#s"/>
    <linearGradient id="z" data-name="New Gradient Swatch 2" x1="63.07" y1="114.77" x2="63.07" y2="114.77" xlink:href="#s"/>
    <linearGradient id="aa" data-name="New Gradient Swatch 2" x1="57.33" y1="132.69" x2="73.65" y2="116.37" xlink:href="#s"/>
    <linearGradient id="ab" data-name="New Gradient Swatch 2" x1="167.91" y1="133.33" x2="185.51" y2="115.74" xlink:href="#s"/>
    <linearGradient id="ac" data-name="New Gradient Swatch 2" x1="166.27" x2="166.29" xlink:href="#s"/>
    <linearGradient id="ad" data-name="New Gradient Swatch 2" x1="166.3" y1="133.05" x2="166.32" y2="133.05" xlink:href="#s"/>
    <linearGradient id="ae" data-name="New Gradient Swatch 2" x1="166.33" y1="133.04" x2="166.35" y2="133.04" xlink:href="#s"/>
    <linearGradient id="af" data-name="New Gradient Swatch 2" x1="166.37" y1="133.04" x2="166.39" y2="133.04" xlink:href="#s"/>
    <linearGradient id="ag" data-name="New Gradient Swatch 2" x1="174.13" y1="114.84" x2="174.15" y2="114.84" xlink:href="#s"/>
    <linearGradient id="ah" data-name="New Gradient Swatch 2" x1="174.1" y1="114.81" x2="174.11" y2="114.81" xlink:href="#s"/>
    <linearGradient id="ai" data-name="New Gradient Swatch 2" x1="174.08" y1="114.74" x2="174.09" y2="114.74" xlink:href="#s"/>
    <linearGradient id="aj" data-name="New Gradient Swatch 2" x1="174.09" y1="114.77" x2="174.09" y2="114.77" xlink:href="#s"/>
    <linearGradient id="ak" data-name="New Gradient Swatch 2" x1="213.9" y1="43.27" x2="215.55" y2="43.27" xlink:href="#s"/>
    <linearGradient id="al" x1="93.99" y1="130.9" x2="150.21" y2="130.9" xlink:href="#f"/>
  </defs>
  <path d="m92.84,132.45s-.08-.08-.12-.12c0,.09,0,.18-.01.26.05-.05.09-.1.14-.15Z" style="fill: #3a1046;"/>
  <path d="m241.03,92.55c-.85-2.61-2.48-4.08-4.76-4.38-1.8-.12-4.58-.06-5.51.01-4.67.34-6.28,3.97-7.34,5.2,0,0-3.24.02-6.69,0,0-1.17,0-4.33,0-4.33,0-.28-.1-.43-.42-.44-.31,0-6.11,0-6.94,0,0-.93-.02-13.56-.02-16.94,0-.22-.08-.42-.4-.42-.68,0-6.5.03-6.98.03,0-3.13,0-6.5,0-9.63h2.41c4.58,0,5.78-2.17,6.26-3.85h8.67c3.37-.24,6.5-2.65,6.5-5.78v-11.8c0-3.13-3.37-6.74-6.74-6.74h-7.95v-9.15c0-4.09-2.41-5.54-5.06-5.54-7.95,0-59.53-.06-59.53-.06-2.65,0-5.06,1.44-5.06,5.54v9.15h-7.95c-3.37,0-6.74,3.61-6.74,6.74v11.8c0,3.13,3.13,5.54,6.5,5.78h8.67c.48,1.69,1.69,3.85,6.26,3.85h2.41c0,3.13,0,6.5,0,9.63-.48,0-6.29-.03-6.98-.03-.32,0-.4.2-.4.42,0,3.37-.02,16-.02,16.94-.83,0-6.63,0-6.94,0-.31,0-.42.16-.42.44,0,0,0,3.16,0,4.33-3.46.01-6.69,0-6.69,0-1.05-1.23-2.67-4.86-7.34-5.2h-2.36c-4.67.34-6.28,3.97-7.34,5.2,0,0-3.24.02-6.69,0,0-1.17,0-4.33,0-4.33,0-.28-.1-.43-.42-.44-.31,0-6.11,0-6.94,0,0-.93-.02-13.56-.02-16.94,0-.22-.08-.42-.4-.42-.68,0-6.5.03-6.98.03,0-3.13,0-6.5,0-9.63h2.41c4.58,0,5.78-2.17,6.26-3.85h8.67c3.37-.24,6.5-2.65,6.5-5.78v-11.8c0-3.13-3.37-6.74-6.74-6.74h-7.95v-9.15c0-4.09-2.41-5.54-5.06-5.54,0,0-51.58.06-59.53.06-2.65,0-5.06,1.44-5.06,5.54v9.15h-7.95c-3.37,0-6.74,3.61-6.74,6.74v11.8c0,3.13,3.13,5.54,6.5,5.78h8.67c.48,1.69,1.69,3.85,6.26,3.85h2.41c0,3.13,0,6.5,0,9.63-.48,0-6.29-.03-6.98-.03-.32,0-.4.2-.4.42,0,3.37-.02,16-.02,16.94-.83,0-6.63,0-6.94,0-.31,0-.42.16-.42.44,0,0,0,3.16,0,4.33-3.46.01-6.69,0-6.69,0-1.05-1.23-2.67-4.86-7.34-5.2-.92-.07-3.71-.14-5.51-.01-2.28.3-3.91,1.77-4.76,4.38C.02,106.07-.02,140.16.01,155.57c-.01,2.79,2.52,4.45,4.25,6.06,12.99,12.32,27.15,25.75,39.69,38.52,0,1.63-.03,19.58-.03,19.58h39.36v-18.42c0-1.81.19-1.98,1.66-3.58,4.11-4.48,16.02-18.17,24.87-28.36-1.26.35-2.56.52-3.89.52-.19,0-.37,0-.56-.01-5.73-.23-10.66-2.38-14.27-6.04-.27,4-.49,6.59-.65,7.12-2.09,2.32-14.28,14.14-21.42,21.42-2.13-.04-5.06.36-7.35.22-6.12-5.87-14.73-14.15-21.08-20.46-1.46-1.3-.95-3.5-1.18-5.28-1.57-25.32-4.2-78.08-4.15-77.97.09-5.78-.93-10.06,3.36-11.76,1.81-.76,47.99-.34,51.97-.31,2.22.03,3.27,1.9,3.3,4.18.18,3.4.14,9.91-.04,17.93,1.29-.86,2.7-1.57,4.2-2.11,2.27-.82,4.68-1.23,7.17-1.23,1.18,0,2.4.1,3.62.28l.48.07.46.11c3.6.88,6.8,2.6,9.53,5.13.9.83,1.8,1.68,2.7,2.53.9-.85,1.8-1.7,2.7-2.53,2.72-2.52,5.93-4.24,9.52-5.12l.47-.11.47-.07c1.22-.19,2.44-.28,3.62-.28,2.49,0,4.9.41,7.16,1.23.47.17.92.36,1.37.56-.15-7.31-.18-13.21,0-16.38.03-2.27,1.08-4.14,3.3-4.18,3.99-.04,50.16-.46,51.97.31,4.28,1.7,3.27,5.99,3.36,11.76.06-.1-2.58,52.66-4.15,77.97-.23,1.78.28,3.98-1.18,5.28-6.35,6.31-14.96,14.59-21.08,20.46-2.28.14-5.22-.26-7.35-.22-7.14-7.28-19.32-19.1-21.42-21.42-.12-.42-.29-2.16-.49-4.88-3.23,2.29-7.18,3.62-11.61,3.8-.22,0-.4.01-.58.01-2.25,0-4.43-.5-6.46-1.49-.63-.31-1.29-.68-1.98-1.11,8.95,10.32,22.28,25.65,26.68,30.45,1.47,1.6,1.66,1.77,1.66,3.58v18.42h39.36s-.03-17.95-.03-19.58c12.54-12.77,26.7-26.2,39.69-38.52,1.73-1.61,4.26-3.27,4.25-6.06.03-15.41,0-49.49-.24-63.01ZM18.26,169.34c-2.99-2.41-11.93-10.92-14.18-13.75.14-17.58.14-59.7.14-61.77,0-2.59,6.43-3.85,6.7-1.4.1,10.1.03,21.87.09,31.79,3.68,1.84,11.06,5.2,16.05,7.38.07,6.9.1,29.31.1,35.77-.49,3.82-8.26,2.63-8.91,1.98Zm20.16-110.82c-2.4,0-4.34-1.94-4.34-4.34v-25.51c0-2.4,1.94-4.34,4.34-4.34h53.39c2.4,0,4.34,1.94,4.34,4.34v25.51c0,2.4-1.94,4.34-4.34,4.34h-53.39Zm111.26,0c-2.4,0-4.34-1.94-4.34-4.34v-25.51c0-2.4,1.94-4.34,4.34-4.34h53.39c2.4,0,4.34,1.94,4.34,4.34v25.51c0,2.4-1.94,4.34-4.34,4.34h-53.39Zm49.24,11.67c0,.09-.07.1-.13.1-2.17,0-40.52-.04-44.86-.05-.06,0-.13-.04-.13-.11-.05-2.85.03-5.87-.02-8.19,0,0,0,0,0,0,0-.16.14-.3.3-.3,5.18,0,42.43.02,44.84.03.06,0,.11.05.11.11-.04,2.67-.07,5.62-.11,8.4Zm24.07,99.14c-.65.65-8.42,1.83-8.91-1.98,0-6.46.03-28.86.1-35.77,5-2.18,12.38-5.53,16.05-7.38.06-9.92,0-21.69.09-31.79.28-2.45,6.7-1.2,6.7,1.4,0,2.07,0,44.19.14,61.77-2.24,2.82-11.19,11.34-14.18,13.75Z" style="fill: #3a1046;"/>
  <path d="m199.68,80.38c-16.54,0-31.11.04-47.87.2-3.38.03-2.78,1.37-2.93,4.81-.03.77-.09,5.6-.11,12.7,3.79,2.08,6.76,5.34,8.52,9.41,1.32,3.06,1.9,6.26,1.71,9.55l.04.22-.24,1.84c-.51,3.97-2.11,7.5-4.75,10.48-.42.48-1.07,1.16-2.87,2.87.64.67,1.27,1.35,1.89,2.03.66.72,1.3,1.5,1.9,2.31,4.06,5.49,5.13,12.11,2.99,18.64-1.47,4.54-4.14,8.17-7.67,10.66.13,1.78.27,3.43.43,4.94,6.66,6.97,21.55,21.5,21.55,21.5,0,0,5.01.35,7.48.24,4.57-4.33,15.75-14.64,22-21.67,1.71-19.94,2.52-78.5,2.8-83.64.31-5.75-1.86-7.07-4.87-7.07Zm-19.26,51.49c-1.45,1.31-3.1,1.95-4.94,1.92-1.01-.02-2.01-.25-3-.69-1.66-.74-2.91-1.92-3.75-3.52-.51-.97-.8-1.95-.87-2.95-.08-1.09.09-2.14.51-3.14.4-.95.96-1.82,1.67-2.6.79-.87,1.74-1.5,2.85-1.88,1.22-.42,2.46-.52,3.72-.28,1.02.19,1.97.58,2.85,1.16,1.34.88,2.33,2.1,2.98,3.66.38.92.56,1.85.53,2.79-.07,2.21-.92,4.06-2.56,5.54Z" style="fill: url(#b);"/>
  <path d="m86.05,155.41c-2.13-6.52-1.06-13.14,3.01-18.64.59-.79,1.23-1.58,1.91-2.31.45-.5.91-.99,1.38-1.48,0-.33.01-.65.02-.98-1.43-1.37-2.01-1.98-2.39-2.41-2.65-2.98-4.25-6.51-4.76-10.48l-.24-1.85.04-.22c-.19-3.28.39-6.48,1.71-9.54,1.32-3.06,3.34-5.66,5.87-7.65-.01-8.05-.08-13.62-.11-14.46-.15-3.44.45-4.78-2.93-4.81-16.75-.15-31.32-.19-47.87-.2-3,0-5.18,1.32-4.87,7.07.28,5.15,1.09,63.7,2.8,83.64,6.24,7.03,17.43,17.34,22,21.67,2.47.11,7.48-.24,7.48-.24,0,0,14.89-14.53,21.55-21.5.21-2.09.41-4.47.58-7.06-2.3-2.29-4.07-5.17-5.17-8.57Zm-11.73-28.79c-.07,1-.36,1.99-.87,2.95-.84,1.6-2.09,2.78-3.75,3.52-.99.44-1.98.67-3,.69-1.84.03-3.49-.61-4.94-1.92-1.64-1.48-2.49-3.33-2.56-5.54-.03-.94.15-1.87.53-2.79.65-1.56,1.64-2.78,2.98-3.66.88-.58,1.84-.97,2.85-1.16,1.26-.23,2.5-.14,3.72.28,1.11.39,2.07,1.01,2.85,1.88.71.78,1.26,1.65,1.67,2.6.42,1,.59,2.04.51,3.14Z" style="fill: url(#c);"/>
  <path d="m95.07,34.83c-.03-1.97-.11-3.44-.23-4.41-.21-1.6-1.11-2.5-2.72-2.7-.45-.06-.9-.09-1.36-.09-4.24-.05-8.48-.07-12.73-.05-1.54,0-2.99,0-4.35,0-11.01-.09-22.01-.06-33.02.07-.84.01-1.6.24-2.28.7-.86.55-1.39,1.31-1.59,2.28-.22,1.07-.35,2.18-.41,3.34,0,.18-.02,1.3-.03,3.36-.02,4.45.02,8.81.11,13.06.01.45.05.9.13,1.34.28,1.61,1.08,2.69,2.4,3.23.53.21,1.36.33,2.5.34,6.52.06,13.04.07,19.56,0,1.44-.01,2.89-.01,4.35,0,5.22.03,10.45.03,15.67-.03,1.98.04,3.97.02,5.95-.05.68-.02,1.46-.03,2.35-.03,1.2,0,1.99-.04,2.35-.14,1.01-.29,1.79-.83,2.34-1.63.28-.41.48-.98.6-1.71.33-2.08.5-4.17.5-6.27,0-3.54-.03-7.07-.09-10.61Zm-45.5,10.58c-1.92,0-3.47-1.55-3.47-3.47s1.55-3.47,3.47-3.47,3.47,1.55,3.47,3.47-1.55,3.47-3.47,3.47Zm31.7,0c-1.92,0-3.47-1.55-3.47-3.47s1.55-3.47,3.47-3.47,3.47,1.55,3.47,3.47-1.55,3.47-3.47,3.47Z" style="fill: url(#d);"/>
  <path d="m18.78,186.58c2.48,1.76,20.39,14.98,20.39,14.98,0,0-30.48-28.35-33.74-31.75-.38-.42-.89-.99-.89.47v42.23c0,4.42,2.42,7.62,7.02,7.19,3.73-.04,7.47-.04,11.2,0l2.35.04c-2.23-.99-6.6-2.38-8.52-3.87-.18-.13-.29-.33-.33-.54-.61-7.86-.17-15.89-.3-23.79,0-2.07-.87-7.5,2.82-4.95Z" style="fill: #3a1046;"/>
  <path d="m117.08,170.51c.06-.81-.2-.68-.59-.27-5.2,5.39-23.08,25.97-23.08,25.97,0,0,7.55-7.62,10.03-9.38,3.68-2.55,2.82,2.88,2.82,4.95-.13,7.9-.07,15.4-.02,23.27-.83,1.75-3.96,3.28-6.47,4.69,0,0,7.34-.04,11.08,0,4.62.12,6.41-2.77,6.23-6.88.03-14.08-.12-28.27,0-42.34Z" style="fill: #3a1046;"/>
  <path d="m182.13,16.62c-3.57-.45-16.63-.66-20.68-1.19-2.5-.39-5.57-1.7-5.57-4.11,0-3.43,1.61-4.38,4.33-6.02,1.55-.91,5.06-2.65,6.02-4.33-13.25,2.65-17.58,11.08-17.34,15.65,6.5,0,22.72.11,33.23,0Z" style="fill: #3a1046;"/>
  <path d="m70.87,16.62c-3.57-.45-16.63-.66-20.68-1.19-2.5-.39-5.57-1.7-5.57-4.11,0-3.43,1.61-4.38,4.33-6.02,1.55-.91,5.06-2.65,6.02-4.33-13.25,2.65-17.58,11.08-17.34,15.65,6.5,0,22.72.11,33.23,0Z" style="fill: #3a1046;"/>
  <path d="m236.23,169.81c-3.26,3.4-33.74,31.75-33.74,31.75,0,0,17.91-13.22,20.39-14.98,3.68-2.55,2.82,2.88,2.82,4.95-.13,7.9.31,15.92-.3,23.79-.04.22-.15.41-.33.54-1.92,1.49-6.29,2.89-8.52,3.87l2.35-.04c3.73-.04,7.47-.04,11.2,0,4.6.43,7.02-2.77,7.02-7.19v-42.23c0-1.46-.51-.89-.89-.47Z" style="fill: #3a1046;"/>
  <path d="m125.6,169.81c-.38-.42-.56.11-.41.51.12,14.07-.07,28.18-.04,42.26-.49,4.01,1.98,7.55,6.58,7.12,3.73-.04,7.47-.04,11.2,0v-.09c-2.12-1.14-4.24-2.26-6.17-3.75-.18-.13-.29-.33-.33-.54-.61-7.86-.17-15.89-.3-23.79,0-2.07-.87-7.5,2.82-4.95,2.48,1.76,14.54,14.45,15.56,15.1,0,0-16.35-17.14-20.34-22.31-2.87-3.76-5.3-6.15-8.56-9.55Z" style="fill: #3a1046;"/>
  <path d="m29.93,35.41c0,5.3-.28,11.25,0,16.62-2.22,0-5.19.05-7.41-.77-3.3-1.9-2.62-6.11-2.82-9.15.03-7.23,4.44-6.63,10.23-6.69Z" style="fill: url(#e);"/>
  <path d="m110.12,42.1c-.19,3.05.48,7.25-2.82,9.15-2.22.82-5.19.77-7.41.77.28-5.36,0-11.32,0-16.62,5.79.06,10.2-.54,10.23,6.69Z" style="fill: url(#f);"/>
  <path d="m141.43,35.41c0,5.3-.28,11.25,0,16.62-2.22,0-5.19.05-7.41-.77-3.3-1.9-2.62-6.11-2.82-9.15.03-7.23,4.44-6.63,10.23-6.69Z" style="fill: url(#g);"/>
  <path d="m221.62,42.1c-.19,3.05.48,7.25-2.82,9.15-2.22.82-5.19.77-7.41.77.28-5.36,0-11.32,0-16.62,5.79.06,10.2-.54,10.23,6.69Z" style="fill: url(#h);"/>
  <path d="m106.51,187.65c-.66-5.35-7.98,3.53-18.59,14.27-.3,1.73-.18,14.68-.22,17.82,1.06,0,8.45,0,11.74.07,2.64-1.21,5.44-2.56,6.92-4.71,0-8.54.33-18.07.15-27.45Z" style="fill: url(#i);"/>
  <path d="m15.77,189.37c-.01-3.81,7.6,1.96,23.58,12.24.46.86.25,16.68.2,18.02-1.02-.02-11.08.15-14.28.15-1.1-.44-6.72-2.42-9.01-4.46-.78-9.69-.41-16.25-.5-25.95Z" style="fill: url(#j);"/>
  <path d="m64.36,0c-12.28-.24-21.7,5.05-23.36,11.56-.93,3.66,4.86,3.96,9.63,4.09,3.86.11,14.69.72,20.47.96h21.67C92.54,11.81,81.7.35,64.36,0Z" style="fill: url(#k);"/>
  <path d="m25.14,133.24c0-.07-.03-.14-.09-.17,0,0-18.16-7.68-18.18-7.68,0-.56-.25-31.32-.12-31.46-.03-.73-.25-.82-.69-.26-.09.12-.18.41-.27.86-.05.26-.06,62.45-.06,62.45,0,0,11.93,11.17,11.97,11.08.14.06.74.29.89.29.53,0,1.05-.05,1.56-.15.79-.15,1.78-.5,2.01-.55.57-.14,1.09-.37,1.56-.7.49-.34.85-.78,1.08-1.32.15-.35.35-26.09.33-32.38Z" style="fill: url(#l);"/>
  <path d="m135.91,189.81c.66-5.35,7.29,1.52,18.59,11.86.3,1.73.18,14.92.22,18.06-1.06,0-8.45,0-11.74.07-2.64-1.21-6.04-1.91-6.72-4.33-.35-8.48-.23-16.18-.35-25.67Z" style="fill: url(#m);"/>
  <path d="m226.47,186.41c.06-5.36-8.74,1.02-24.08,15.2-.46.86-.25,16.68-.2,18.02,1.02-.02,11.08.15,14.28.15,1.1-.44,7.32-2.38,9.61-4.42.78-9.69.3-19.25.39-28.95Z" style="fill: url(#n);"/>
  <path d="m175.62,0c-12.28-.24-21.7,5.05-23.36,11.56-.93,3.66,4.86,3.96,9.63,4.09,3.86.11,14.69.72,20.47.96h21.67c-.24-4.82-11.08-16.28-28.42-16.62Z" style="fill: url(#o);"/>
  <path d="m206.33,34.83c-.03-1.97-.11-3.44-.23-4.41-.21-1.6-1.11-2.5-2.72-2.7-.45-.06-.9-.09-1.36-.09-4.24-.05-8.48-.07-12.73-.05-1.54,0-2.99,0-4.35,0-11.01-.09-22.01-.06-33.02.07-.84.01-1.6.24-2.28.7-.86.55-1.39,1.31-1.59,2.28-.22,1.07-.35,2.18-.41,3.34,0,.18-.02,1.3-.03,3.36-.02,4.45.02,8.81.11,13.06.01.45.05.9.13,1.34.28,1.61,1.08,2.69,2.4,3.23.53.21,1.36.33,2.5.34,6.52.06,13.04.07,19.56,0,1.44-.01,2.89-.01,4.35,0,5.22.03,10.45.03,15.67-.03,1.98.04,3.97.02,5.95-.05.68-.02,1.46-.03,2.35-.03,1.2,0,1.99-.04,2.35-.14,1.01-.29,1.79-.83,2.34-1.63.28-.41.48-.98.6-1.71.33-2.08.5-4.17.5-6.27,0-3.54-.03-7.07-.09-10.61Z" style="fill: url(#p);"/>
  <path d="m216.32,165.86c.23.53.59.97,1.08,1.32.47.33.99.56,1.56.7.23.06.74.16,1.53.31.51.1,1.03.15,1.56.15.15,0,.75-.22.89-.29.04.09,10.28-9.15,10.28-9.15,0,0-.01-64.12-.06-64.38-.09-.45-.17-.73-.27-.86-.43-.56-.9-.47-.93.26.13.15-.11,30.9-.12,31.46-.02,0-15.77,7.44-15.77,7.44-.05.03-.09.09-.09.17-.01,6.29.18,32.51.33,32.86Z" style="fill: url(#q);"/>
  <path d="m42.53,70.15c-.05-2.85.03-5.87-.02-8.19,0,0,0,0,0,0,0-.16.14-.3.3-.3,5.18,0,42.43.02,44.84.03.06,0,.11.05.11.11-.04,2.67-.07,5.62-.11,8.4,0,.09-.07.1-.13.1-2.17,0-40.52-.04-44.86-.05-.06,0-.13-.04-.13-.11Z" style="fill: url(#r);"/>
  <path d="m55.25,133.09s0,0,0-.01c0,0,0,0,.01,0,0,0-.01.01-.02.02Z" style="fill: url(#s);"/>
  <path d="m55.28,133.06s.01,0,.02,0c0,0-.01,0-.02,0Z" style="fill: url(#t);"/>
  <path d="m55.32,133.04s.01,0,.02,0c0,0-.01,0-.02,0Z" style="fill: url(#u);"/>
  <path d="m55.35,133.04s.01,0,.02,0c0,0-.01,0-.02,0Z" style="fill: url(#v);"/>
  <path d="m63.13,114.85s0,0,0,0c0,0-.01,0-.02-.01,0,0,.01.01.02.01Z" style="fill: url(#w);"/>
  <path d="m63.09,114.82s0-.01-.01-.02c0,0,0,.01.01.02Z" style="fill: url(#x);"/>
  <path d="m63.07,114.73s0,.01,0,.02c0,0,0-.01,0-.02Z" style="fill: url(#y);"/>
  <path d="m63.07,114.78s0-.01,0-.02c0,0,0,.01,0,.02Z" style="fill: url(#z);"/>
  <path d="m76.73,121.66c-.45-1.12-1.1-2.14-1.94-3.05-1.52-1.65-3.42-2.78-5.7-3.38-1.33-.35-2.68-.45-4.05-.28-.84.1-1.67.25-2.5.44,0-.1.06-.27.17-.51,1-2.16,1.88-3.93,2.64-5.31.02-.03.03-.09.04-.17,0-.05.03-.1.06-.14.25-.25.39-.44.44-.56.04-.12,0-.14-.12-.08-.13.15-.29.26-.47.35-2.53,1.27-4.87,2.99-7.02,5.15-2.16,2.18-3.51,4.7-4.05,7.57-.41,2.18-.26,4.33.44,6.45.39,1.18.93,2.26,1.62,3.24,1.26,1.8,2.91,3.18,4.97,4.16,1.15.55,2.36.88,3.64.98,1.05.09,2.09.07,3.13-.05,1.06-.13,2.06-.41,2.98-.84,2.24-1.06,3.95-2.67,5.13-4.83.59-1.09.99-2.22,1.2-3.41.34-1.98.14-3.89-.61-5.74Zm-2.4,4.96c-.07,1-.36,1.99-.87,2.95-.84,1.6-2.09,2.78-3.75,3.52-.99.44-1.98.67-3,.69-1.84.03-3.49-.61-4.94-1.92-1.64-1.48-2.49-3.33-2.56-5.54-.03-.94.15-1.87.53-2.79.65-1.56,1.64-2.78,2.98-3.66.88-.58,1.84-.97,2.85-1.16,1.26-.23,2.5-.14,3.72.28,1.11.39,2.07,1.01,2.85,1.88.71.78,1.26,1.65,1.67,2.6.42,1,.59,2.04.51,3.14Z" style="fill: url(#aa);"/>
  <path d="m187.96,121.71c-.54-2.86-1.89-5.38-4.05-7.57-2.15-2.16-4.48-3.88-7.02-5.15-.18-.09-.33-.21-.47-.35-.12-.06-.16-.04-.12.08.04.12.19.3.44.56.03.04.05.09.06.14,0,.08.02.14.04.17.77,1.38,1.65,3.15,2.64,5.31.11.24.17.41.17.51-.83-.19-1.66-.34-2.5-.44-1.37-.17-2.72-.08-4.05.28-2.27.6-4.17,1.73-5.7,3.38-.84.91-1.48,1.92-1.94,3.05-.75,1.84-.95,3.76-.61,5.74.2,1.18.6,2.32,1.2,3.41,1.18,2.16,2.89,3.77,5.13,4.83.92.43,1.91.72,2.98.84,1.03.12,2.08.14,3.13.05,1.27-.11,2.49-.44,3.64-.98,2.05-.98,3.71-2.36,4.97-4.16.69-.98,1.23-2.06,1.62-3.24.7-2.12.85-4.27.44-6.45Zm-7.53,10.16c-1.45,1.31-3.1,1.95-4.94,1.92-1.01-.02-2.01-.25-3-.69-1.66-.74-2.91-1.92-3.75-3.52-.51-.97-.8-1.95-.87-2.95-.08-1.09.09-2.14.51-3.14.4-.95.96-1.82,1.67-2.6.79-.87,1.74-1.5,2.85-1.88,1.22-.42,2.46-.52,3.72-.28,1.02.19,1.97.58,2.85,1.16,1.34.88,2.33,2.1,2.98,3.66.38.92.56,1.85.53,2.79-.07,2.21-.92,4.06-2.56,5.54Z" style="fill: url(#ab);"/>
  <path d="m166.27,133.09s0,0,0-.01c0,0,0,0,.01,0,0,0-.01.01-.02.02Z" style="fill: url(#ac);"/>
  <path d="m166.3,133.06s.01,0,.02,0c0,0-.01,0-.02,0Z" style="fill: url(#ad);"/>
  <path d="m166.33,133.04s.01,0,.02,0c0,0-.01,0-.02,0Z" style="fill: url(#ae);"/>
  <path d="m166.37,133.04s.01,0,.02,0c0,0-.01,0-.02,0Z" style="fill: url(#af);"/>
  <path d="m174.15,114.85s0,0,0,0c0,0-.01,0-.02-.01,0,0,.01.01.02.01Z" style="fill: url(#ag);"/>
  <path d="m174.11,114.82s0-.01-.01-.02c0,0,0,.01.01.02Z" style="fill: url(#ah);"/>
  <path d="m174.09,114.73s0,.01,0,.02c0,0,0-.01,0-.02Z" style="fill: url(#ai);"/>
  <path d="m174.09,114.78s0-.01,0-.02c0,0,0,.01,0,.02Z" style="fill: url(#aj);"/>
  <path d="m49.57,35.61c-3.49,0-6.32,2.83-6.32,6.32s2.83,6.32,6.32,6.32,6.32-2.83,6.32-6.32-2.83-6.32-6.32-6.32Zm0,9.79c-1.92,0-3.47-1.55-3.47-3.47s1.55-3.47,3.47-3.47,3.47,1.55,3.47,3.47-1.55,3.47-3.47,3.47Z" style="fill: #3a1046;"/>
  <path d="m81.27,35.61c-3.49,0-6.32,2.83-6.32,6.32s2.83,6.32,6.32,6.32,6.32-2.83,6.32-6.32-2.83-6.32-6.32-6.32Zm0,9.79c-1.92,0-3.47-1.55-3.47-3.47s1.55-3.47,3.47-3.47,3.47,1.55,3.47,3.47-1.55,3.47-3.47,3.47Z" style="fill: #371044;"/>
  <rect x="25.71" y="36.47" width="1.66" height="13.6" rx=".4" ry=".4" style="fill: #3a1046;"/>
  <rect x="102.53" y="36.47" width="1.66" height="13.6" rx=".4" ry=".4" style="fill: #3a1046;"/>
  <rect x="136.97" y="36.29" width="1.66" height="13.6" rx=".4" ry=".4" style="fill: #3a1046;"/>
  <rect x="213.9" y="36.47" width="1.66" height="13.6" rx=".4" ry=".4" style="fill: url(#ak);"/>
  <circle cx="160.83" cy="41.94" r="6.32" style="fill: #3a1046;"/>
  <circle cx="160.83" cy="41.94" r="3.47" style="fill: #59e7d9;"/>
  <circle cx="192.53" cy="41.94" r="6.32" style="fill: #3a1046;"/>
  <circle cx="192.53" cy="41.94" r="3.47" style="fill: #59e7d9;"/>
  <path d="m138.56,165.67c-1.28,0-2.52-.29-3.68-.85-.53-.26-1.09-.58-1.72-.98-.54-.35-1.1-.77-1.65-1.24-1.5-1.28-2.96-2.66-4.35-4.07-2-2.04-3.08-3.14-3.26-3.32-.95-.93-1.9-1.86-2.85-2.79-.95.93-1.9,1.86-2.85,2.79-.17.18-1.26,1.28-3.25,3.32-1.39,1.42-2.86,2.79-4.36,4.08-.55.47-1.1.89-1.64,1.24-.63.41-1.2.73-1.73.99-1.15.56-2.38.85-3.67.85-.11,0-.21,0-.32,0-6.95-.28-11.92-3.99-14.01-10.46-1.55-4.73-.81-9.35,2.15-13.34.48-.65,1.01-1.29,1.56-1.89,2.35-2.58,4.82-5.12,7.33-7.55-1.79-1.7-3.46-3.28-5.06-4.79-2.24-2.11-2.92-2.83-3.27-3.22-1.84-2.07-2.95-4.53-3.31-7.29l-.1-.75v-.06c-.29-2.68.1-5.3,1.18-7.79,1.54-3.57,4.28-6.14,7.9-7.45,1.63-.59,3.38-.89,5.2-.89.9,0,1.83.07,2.77.22l.19.03.19.05c2.64.64,4.99,1.91,6.99,3.76,2.74,2.53,5.46,5.16,8.09,7.8l.02.02s.01-.01.02-.02c2.63-2.65,5.36-5.27,8.1-7.8,2-1.85,4.35-3.11,6.99-3.76l.19-.05.19-.03c.94-.14,1.87-.22,2.77-.22,1.82,0,3.57.3,5.2.89,3.63,1.31,6.36,3.89,7.9,7.46,1.08,2.49,1.47,5.11,1.16,7.79v.06s-.08.74-.08.74c-.36,2.77-1.47,5.22-3.31,7.29-.35.39-1.03,1.11-3.27,3.22-1.61,1.51-3.28,3.1-5.06,4.79,2.52,2.44,4.98,4.98,7.34,7.56.55.59,1.07,1.23,1.56,1.89,2.95,3.99,3.69,8.61,2.14,13.36-2.08,6.45-7.05,10.17-13.99,10.44-.12,0-.22,0-.33,0Z" style="fill: #3a1046;"/>
  <path d="m148.16,142.52c-.39-.53-.81-1.04-1.26-1.53-2.48-2.72-5.04-5.35-7.69-7.89-1.13-1.08-2.08-1.99-2.85-2.74,2.83-2.7,5.67-5.39,8.51-8.06,1.58-1.49,2.58-2.47,2.99-2.93,1.23-1.39,1.96-3.01,2.2-4.87l-.02-.09c.36-2.13.12-4.17-.73-6.13-1.06-2.44-2.82-4.11-5.29-5-1.74-.63-3.65-.78-5.75-.45-1.89.46-3.56,1.36-4.99,2.69-2.71,2.5-5.36,5.06-7.96,7.67-1.22,1.23-2.29,2.29-3.21,3.2-.92-.91-1.99-1.98-3.21-3.2-2.6-2.61-5.26-5.17-7.96-7.67-1.44-1.33-3.1-2.23-4.99-2.69-2.1-.32-4.02-.17-5.75.45-2.47.89-4.24,2.56-5.29,5-.85,1.96-1.09,4.01-.73,6.13l-.02.09c.24,1.86.97,3.48,2.2,4.87.41.46,1.41,1.44,2.99,2.93,2.85,2.68,5.68,5.37,8.51,8.06-.78.75-1.72,1.66-2.85,2.74-2.65,2.54-5.21,5.17-7.69,7.89-.45.49-.87,1-1.26,1.53-2.08,2.82-2.58,5.9-1.48,9.26,1.51,4.69,4.81,7.13,9.88,7.34.65.02,1.27-.11,1.85-.39.37-.18.79-.42,1.26-.72.37-.24.75-.53,1.15-.87,1.41-1.21,2.77-2.48,4.07-3.81,2.19-2.24,3.29-3.36,3.31-3.37,2-1.96,4.01-3.92,6.02-5.88,2.01,1.96,4.02,3.91,6.02,5.88.01,0,1.11,1.13,3.31,3.37,1.3,1.33,2.66,2.6,4.07,3.81.39.34.78.63,1.15.87.47.3.89.54,1.26.72.58.29,1.2.42,1.85.39,5.08-.2,8.37-2.65,9.88-7.34,1.1-3.36.61-6.45-1.48-9.26Z" style="fill: url(#al);"/>
  <path d="m871.21,29.08h70.32c13.81,0,25.22,11.41,25.22,25.22,0,4.79-1.41,9.3-3.8,13.25,9.16,7.75,15.08,19.31,15.08,32.13,0,23.11-19.02,42.13-42.42,42.13h-64.4V29.08Zm61.3,40.16c0-5.78-4.37-10.15-10.01-10.15s-10.15,4.37-10.15,10.15,4.51,10,10.15,10,10.01-4.37,10.01-10Zm0,32.41c0-5.78-4.37-10.15-10.01-10.15s-10.15,4.37-10.15,10.15,4.51,10.01,10.15,10.01,10.01-4.37,10.01-10.01Z" style="fill: #3a1046;"/>
  <path d="m982.25,29.08h56.37c25.93,0,46.64,19.02,46.64,42.42,0,8.88-2.82,16.91-7.75,23.67h10.29v46.64h-44.67v-27.76h-16.21v27.76h-44.67V29.08Zm61.72,43.68c0-6.34-5.07-11.41-11.27-11.41s-11.41,5.07-11.41,11.41,5.21,11.27,11.41,11.27,11.27-5.07,11.27-11.27Z" style="fill: #3a1046;"/>
  <path d="m1210.11,103.77h22.26l-7.89-29.73c-6.9-26.07,5.92-44.95,30.16-44.95h37.48v38.05h-20.43l8.17,31c6.62,25.22-6.2,43.68-30.44,43.68h-39.32v-38.05Z" style="fill: #3a1046;"/>
  <path d="m1150.22,26.83c-33.68,0-60.6,26.35-60.6,58.48s26.92,58.76,60.6,58.76,60.31-26.35,60.31-58.76-27.34-58.48-60.31-58.48Zm24.4,78.29c-1.35,4.18-4.28,6.36-8.81,6.54-.58.02-1.13-.09-1.65-.35-.33-.16-.7-.37-1.12-.64-.33-.21-.67-.47-1.02-.77-1.26-1.08-2.47-2.21-3.63-3.4-1.95-1.99-2.93-2.99-2.95-3-1.78-1.75-3.57-3.49-5.36-5.24-1.79,1.74-3.58,3.49-5.36,5.24-.01,0-.99,1.01-2.95,3-1.16,1.18-2.37,2.32-3.63,3.4-.35.3-.69.56-1.02.77-.42.27-.79.48-1.12.64-.52.25-1.07.37-1.65.35-4.52-.18-7.46-2.36-8.81-6.54-.98-2.99-.54-5.74,1.32-8.25.35-.47.72-.93,1.12-1.36,2.21-2.42,4.49-4.76,6.86-7.03,1.01-.96,1.85-1.77,2.54-2.44-2.52-2.4-5.05-4.8-7.58-7.19-1.41-1.33-2.3-2.2-2.66-2.61-1.1-1.23-1.75-2.68-1.96-4.34l.02-.08c-.32-1.89-.11-3.72.65-5.46.94-2.17,2.51-3.66,4.72-4.46,1.55-.56,3.26-.69,5.13-.4,1.69.41,3.17,1.21,4.45,2.4,2.41,2.23,4.78,4.51,7.1,6.84,1.09,1.09,2.04,2.04,2.86,2.85.82-.81,1.78-1.76,2.86-2.85,2.32-2.33,4.68-4.61,7.1-6.84,1.28-1.19,2.76-1.98,4.45-2.4,1.87-.29,3.58-.15,5.13.4,2.2.8,3.78,2.28,4.72,4.46.76,1.75.97,3.57.65,5.46l.02.08c-.21,1.66-.87,3.1-1.96,4.34-.36.41-1.25,1.28-2.66,2.61-2.54,2.39-5.06,4.78-7.58,7.19.69.67,1.54,1.48,2.54,2.44,2.36,2.26,4.65,4.61,6.86,7.03.4.43.77.89,1.12,1.36,1.86,2.51,2.3,5.26,1.32,8.25Z" style="fill: #3a1046;"/>
  <path d="m291.3,141.58h-10.27V28.34h34.58c28.24,0,37.9,16.31,37.9,33.97s-9.66,33.97-37.9,33.97h-24.31v45.3Zm0-54.81h25.67c21.29,0,25.37-13.59,25.37-24.46s-4.08-24.46-25.37-24.46h-25.67v48.92Z" style="fill: #3a1046;"/>
  <path d="m380.39,141.58h-10.27V28.34h35.48c28.24,0,36.99,12.38,36.99,31.86,0,15.1-5.28,25.97-20.84,30.05l27.03,51.34h-11.93l-25.37-49.68c-1.66.15-3.32.15-4.98.15h-26.12v49.53Zm0-59.04h27.94c20.08,0,23.1-10.27,23.1-22.35s-3.02-22.35-23.1-22.35h-27.94v44.7Z" style="fill: #3a1046;"/>
  <path d="m461.63,84.96c0-29.6,5.28-58.13,42.28-58.13s42.28,28.54,42.28,58.13-5.28,58.13-42.28,58.13-42.28-28.54-42.28-58.13Zm73.69,0c0-27.18-4.08-48.62-31.41-48.62s-31.41,21.44-31.41,48.62,4.08,48.62,31.41,48.62,31.41-21.44,31.41-48.62Z" style="fill: #3a1046;"/>
  <path d="m622.9,124.22h-8.46l-38.2-82.45.6,99.81h-10.27V28.34h13.89l38.2,83.35,38.2-83.35h13.89v113.25h-10.27l.6-99.81-38.2,82.45Z" style="fill: #3a1046;"/>
  <path d="m703.68,141.58h-10.27V28.34h34.58c28.24,0,37.9,16.31,37.9,33.97s-9.66,33.97-37.9,33.97h-24.31v45.3Zm0-54.81h25.67c21.29,0,25.37-13.59,25.37-24.46s-4.08-24.46-25.37-24.46h-25.67v48.92Z" style="fill: #3a1046;"/>
  <path d="m818.59,37.85v103.74h-10.27V37.85h-31.26v-9.51h72.78v9.51h-31.26Z" style="fill: #3a1046;"/>
  <rect x="341.1" y="188.95" width="322.47" height="1.41" style="fill: #ee7d92;"/>
  <rect x="860.06" y="187.27" width="322.47" height="1.41" style="fill: #59e7d9;"/>
  <path d="m697.31,195.24h-1.56v-17.23h5.26c4.3,0,5.77,2.48,5.77,5.17s-1.47,5.17-5.77,5.17h-3.7v6.89Zm0-8.34h3.91c3.24,0,3.86-2.07,3.86-3.72s-.62-3.72-3.86-3.72h-3.91v7.44Z" style="fill: #3a1046;"/>
  <path d="m713.21,195.47c-3.93,0-4.82-2.46-4.82-5.97s.9-5.97,4.82-5.97,4.82,2.46,4.82,5.97-.87,5.97-4.82,5.97Zm0-10.52c-3.03,0-3.22,1.95-3.22,4.55s.18,4.55,3.22,4.55,3.22-1.95,3.22-4.55-.23-4.55-3.22-4.55Z" style="fill: #3a1046;"/>
  <path d="m734.68,183.75l-3.24,11.72h-1.2l-3.15-9.99-3.15,9.99h-1.19l-3.24-11.72h1.72l2.16,9.01,2.85-9.01h1.7l2.85,9.01,2.16-9.01h1.72Z" style="fill: #3a1046;"/>
  <path d="m741,183.52c3.91,0,4.37,2.67,4.37,5.97v.74h-7.58c.09,2,.62,3.81,3.22,3.81,1.65,0,2.66-.16,3.79-.64v1.38c-1.29.57-2.66.69-3.79.69-3.88,0-4.82-2.66-4.82-5.97s.94-5.97,4.82-5.97Zm-3.22,5.4h5.97c0-2.05-.12-3.98-2.76-3.98s-3.15,1.91-3.22,3.98Z" style="fill: #3a1046;"/>
  <path d="m754.44,185.13c-.34-.11-.8-.18-1.38-.18-1.56,0-2.48.25-3.33.73v9.56h-1.61v-11.49h.9l.34.96c1.08-.81,2.41-1.2,3.7-1.2.53,0,.94.05,1.38.12v1.49Z" style="fill: #3a1046;"/>
  <path d="m761.05,183.52c3.91,0,4.37,2.67,4.37,5.97v.74h-7.58c.09,2,.62,3.81,3.22,3.81,1.65,0,2.66-.16,3.79-.64v1.38c-1.29.57-2.66.69-3.79.69-3.88,0-4.82-2.66-4.82-5.97s.94-5.97,4.82-5.97Zm-3.22,5.4h5.97c0-2.05-.12-3.98-2.76-3.98s-3.15,1.91-3.22,3.98Z" style="fill: #3a1046;"/>
  <path d="m775.87,184.46v-6.46h1.61v17.23h-.9l-.35-.94c-1.19.76-2.34,1.17-3.58,1.17-3.7,0-4.71-2.66-4.71-5.97s1.01-5.97,4.71-5.97c1.06,0,2.23.3,3.22.94Zm-6.32,5.03c0,2.27.35,4.55,3.1,4.55,1.49,0,2.32-.25,3.22-.74v-7.63c-.9-.48-1.72-.73-3.22-.73-2.76,0-3.1,2.27-3.1,4.55Z" style="fill: #3a1046;"/>
  <path d="m793.9,189.49c0,3.31-1.01,5.97-4.71,5.97-1.24,0-2.39-.41-3.58-1.17l-.34.94h-.9v-17.23h1.61v6.46c.99-.64,2.16-.94,3.22-.94,3.7,0,4.71,2.67,4.71,5.97Zm-7.93-3.81v7.63c.9.48,1.72.74,3.22.74,2.76,0,3.1-2.28,3.1-4.55s-.34-4.55-3.1-4.55c-1.49,0-2.32.25-3.22.73Z" style="fill: #3a1046;"/>
  <path d="m797,183.75l3.22,9.42,3.22-9.42h1.84l-6.62,17.23h-1.72l2.6-6.04-4.37-11.19h1.84Z" style="fill: #3a1046;"/>
  <path d="m810.2,195.24l6.09-17.46h1.15l6.09,17.46h-1.77l-1.59-4.82h-6.62l-1.59,4.82h-1.77Zm3.79-6.18h5.72l-2.85-8.66-2.87,8.66Z" style="fill: #3a1046;"/>
  <path d="m826.28,195.24v-17.23h1.61v17.23h-1.61Z" style="fill: #3a1046;"/>
</svg>