<?xml version="1.0" encoding="UTF-8"?>
<svg id="a" data-name="Layer 1" xmlns="http://www.w3.org/2000/svg" xmlns:xlink="http://www.w3.org/1999/xlink" viewBox="0 0 745.52 84.88">
  <defs>
    <linearGradient id="b" x1="21.53" y1="33.78" x2="21.54" y2="33.78" gradientTransform="translate(0 85.02) scale(1 -1)" gradientUnits="userSpaceOnUse">
      <stop offset="0" stop-color="#271a24"/>
      <stop offset="1" stop-color="#3a1046"/>
    </linearGradient>
    <linearGradient id="c" x1="64.6" y1="33.78" x2="64.61" y2="33.78" gradientTransform="translate(0 85.02) scale(1 -1)" gradientUnits="userSpaceOnUse">
      <stop offset="0" stop-color="#271a24"/>
      <stop offset="1" stop-color="#3a1046"/>
    </linearGradient>
  </defs>
  <path d="m483.48,11.35h43.78c8.6,0,15.7,7.11,15.7,15.7,0,2.98-.88,5.79-2.37,8.25,5.7,4.83,9.39,12.02,9.39,20,0,14.39-11.84,26.23-26.41,26.23h-40.09V11.35Zm38.16,25c0-3.6-2.72-6.32-6.23-6.32s-6.32,2.72-6.32,6.32,2.81,6.23,6.32,6.23,6.23-2.72,6.23-6.23Zm0,20.18c0-3.6-2.72-6.32-6.23-6.32s-6.32,2.72-6.32,6.32,2.81,6.23,6.32,6.23,6.23-2.72,6.23-6.23Z" style="fill: #fff;"/>
  <path d="m552.61,11.35h35.09c16.14,0,29.04,11.84,29.04,26.41,0,5.53-1.75,10.53-4.82,14.74h6.4v29.04h-27.81v-17.28h-10.09v17.28h-27.81V11.35Zm38.42,27.2c0-3.95-3.16-7.11-7.02-7.11s-7.11,3.16-7.11,7.11,3.25,7.02,7.11,7.02,7.02-3.16,7.02-7.02Z" style="fill: #fff;"/>
  <path d="m694.46,57.85h13.86l-4.91-18.51c-4.3-16.23,3.68-27.99,18.77-27.99h23.34v23.69h-12.72l5.09,19.3c4.12,15.7-3.86,27.2-18.95,27.2h-24.48v-23.69Z" style="fill: #fff;"/>
  <path d="m657.18,9.95c-20.97,0-37.72,16.41-37.72,36.41s16.76,36.58,37.72,36.58,37.55-16.41,37.55-36.58c0-20.01-17.02-36.41-37.55-36.41Zm15.19,48.74c-.84,2.6-2.67,3.96-5.48,4.07-.36.01-.7-.06-1.03-.22-.2-.1-.44-.23-.7-.4-.21-.13-.42-.29-.64-.48-.78-.67-1.54-1.38-2.26-2.11-1.22-1.24-1.83-1.86-1.83-1.87-1.11-1.09-2.22-2.18-3.34-3.26-1.12,1.08-2.23,2.17-3.34,3.26-.01.01-.62.63-1.83,1.87-.72.74-1.48,1.44-2.26,2.11-.22.19-.43.35-.64.48-.26.17-.49.3-.7.4-.32.16-.67.23-1.03.22-2.82-.11-4.64-1.47-5.48-4.07-.61-1.86-.34-3.58.82-5.14.22-.29.45-.58.7-.85,1.38-1.51,2.8-2.97,4.27-4.38.63-.6,1.15-1.1,1.58-1.52-1.57-1.5-3.14-2.99-4.72-4.47-.88-.83-1.43-1.37-1.66-1.62-.68-.77-1.09-1.67-1.22-2.7v-.05c-.19-1.18-.06-2.31.41-3.4.59-1.35,1.56-2.28,2.94-2.77.96-.35,2.03-.43,3.19-.25,1.05.26,1.97.75,2.77,1.49,1.5,1.39,2.97,2.81,4.42,4.26.68.68,1.27,1.27,1.78,1.78.51-.5,1.11-1.1,1.78-1.78,1.44-1.45,2.92-2.87,4.42-4.26.8-.74,1.72-1.24,2.77-1.49,1.16-.18,2.23-.1,3.19.25,1.37.5,2.35,1.42,2.94,2.77.47,1.09.61,2.22.4,3.4v.05c-.12,1.03-.53,1.93-1.21,2.7-.23.26-.78.8-1.66,1.62-1.58,1.49-3.15,2.98-4.72,4.47.43.42.96.92,1.58,1.52,1.47,1.41,2.89,2.87,4.27,4.38.25.27.48.55.7.85,1.15,1.56,1.43,3.28.82,5.14Z" style="fill: #fff;"/>
  <path d="m122.46,81.39h-6.39V10.89h21.53c17.58,0,23.6,10.15,23.6,21.15s-6.02,21.15-23.6,21.15h-15.13v28.2h-.01Zm0-34.12h15.98c13.25,0,15.79-8.46,15.79-15.23s-2.54-15.23-15.79-15.23h-15.98v30.46Z" style="fill: #fff;"/>
  <path d="m177.92,81.39h-6.39V10.89h22.09c17.58,0,23.03,7.71,23.03,19.83,0,9.4-3.29,16.17-12.97,18.71l16.83,31.96h-7.43l-15.79-30.93c-1.03.09-2.07.09-3.1.09h-16.26v30.84h-.01Zm0-36.75h17.39c12.5,0,14.38-6.39,14.38-13.91s-1.88-13.91-14.38-13.91h-17.39v27.82Z" style="fill: #fff;"/>
  <path d="m228.49,46.14c0-18.42,3.29-36.19,26.32-36.19s26.32,17.77,26.32,36.19-3.29,36.19-26.32,36.19-26.32-17.77-26.32-36.19Zm45.88,0c0-16.92-2.54-30.27-19.55-30.27s-19.55,13.35-19.55,30.27,2.54,30.27,19.55,30.27,19.55-13.35,19.55-30.27Z" style="fill: #fff;"/>
  <path d="m328.89,70.58h-5.26l-23.78-51.33.38,62.14h-6.39V10.89h8.65l23.78,51.89,23.78-51.89h8.65v70.5h-6.39l.38-62.14-23.8,51.33Z" style="fill: #fff;"/>
  <path d="m379.18,81.39h-6.39V10.89h21.53c17.58,0,23.6,10.15,23.6,21.15s-6.02,21.15-23.6,21.15h-15.13v28.2h-.01Zm0-34.12h15.98c13.25,0,15.79-8.46,15.79-15.23s-2.54-15.23-15.79-15.23h-15.98v30.46Z" style="fill: #fff;"/>
  <path d="m450.72,16.81v64.58h-6.39V16.81h-19.46v-5.92h45.31v5.92h-19.46Z" style="fill: #fff;"/>
  <path d="m36.09,51l-.05-.05v.1s.03-.03.05-.05Z" style="fill: #fff;"/>
  <path d="m7.36,72.01c.96.68,7.91,5.81,7.91,5.81,0,0-11.83-11-13.09-12.32-.15-.16-.35-.38-.35.18v16.38c0,1.71.94,2.96,2.73,2.79,1.45-.02,2.9-.02,4.35,0h.91c-.87-.37-2.56-.91-3.31-1.49-.07-.05-.11-.13-.13-.21-.24-3.05-.07-6.16-.12-9.23,0-.8-.33-2.9,1.1-1.91Z" style="fill: #fff;"/>
  <path d="m45.49,65.77c.02-.31-.08-.26-.23-.11-2.02,2.09-8.95,10.08-8.95,10.08,0,0,2.93-2.96,3.89-3.64,1.43-.99,1.09,1.12,1.09,1.92-.05,3.06-.03,5.97-.01,9.03-.32.68-1.54,1.27-2.51,1.82,0,0,2.85-.02,4.3,0,1.79.04,2.49-1.08,2.42-2.67.01-5.46-.05-10.97,0-16.43Z" style="fill: #fff;"/>
  <path d="m91.72,65.5c-1.26,1.32-13.09,12.32-13.09,12.32,0,0,6.95-5.13,7.91-5.81,1.43-.99,1.09,1.12,1.09,1.92-.05,3.06.12,6.18-.12,9.23-.01.08-.06.16-.13.21-.75.58-2.44,1.12-3.31,1.5h.91c1.45-.03,2.9-.03,4.35-.01,1.78.17,2.73-1.07,2.73-2.79v-16.38c.01-.57-.19-.35-.34-.19Z" style="fill: #fff;"/>
  <path d="m48.8,65.5c-.15-.16-.22.04-.16.2.05,5.46-.03,10.93-.02,16.39-.19,1.56.77,2.93,2.55,2.76,1.45-.02,2.9-.02,4.35,0v-.04c-.82-.44-1.65-.88-2.39-1.45-.07-.05-.11-.13-.13-.21-.24-3.05-.07-6.16-.12-9.23,0-.8-.34-2.91,1.09-1.92.96.68,5.64,5.6,6.04,5.86,0,0-6.34-6.65-7.89-8.66-1.12-1.45-2.06-2.38-3.32-3.7Z" style="fill: #fff;"/>
  <path d="m19.72,5.7c-1.85-.05-4.1-.17-3.74-1.59.46-1.83,2.51-3.4,5.41-4.1,0,0,0-.01.01-.01-5.14,1.03-6.82,4.3-6.73,6.07,2.52,0,8.81.04,12.89,0-.02,0-.04,0-.06-.01-2.27-.09-6.32-.32-7.78-.36Z" style="fill: #fff;"/>
  <path d="m62.88,5.7c-1.85-.05-4.1-.17-3.74-1.59.46-1.83,2.51-3.4,5.41-4.1,0,0,0-.01.01-.01-5.14,1.03-6.82,4.3-6.73,6.07,2.52,0,8.81.04,12.89,0-.02,0-.04,0-.06-.01-2.26-.09-6.31-.32-7.78-.36Z" style="fill: #fff;"/>
  <path d="m93.58,35.53c-.33-1.01-.96-1.58-1.85-1.7-.7-.05-1.78-.02-2.14,0-1.81.13-2.44,1.54-2.85,2.02,0,0-1.26.01-2.6,0v-1.68c0-.11-.04-.17-.16-.17h-2.69c0-.36-.01-5.26-.01-6.57,0-.09-.03-.16-.16-.16-.27,0-2.52.01-2.71.01v-3.74h.93c1.78,0,2.24-.84,2.43-1.49h3.36c1.31-.09,2.52-1.03,2.52-2.24v-4.58c0-1.21-1.31-2.62-2.62-2.62h-3.08v-3.55c0-1.59-.93-2.15-1.96-2.15-3.08,0-23.09-.02-23.09-.02-1.03,0-1.96.56-1.96,2.15v3.55h-3.08c-1.31,0-2.62,1.4-2.62,2.62v4.58c0,1.21,1.21,2.15,2.52,2.24h3.36c.19.65.65,1.49,2.43,1.49h.93v3.74c-.19,0-2.44-.01-2.71-.01-.13,0-.16.08-.16.16,0,1.31-.01,6.21-.01,6.57h-2.69c-.12,0-.16.06-.16.17v1.68h-2.6c-.41-.48-1.04-1.89-2.85-2.02h-.92c-1.81.13-2.44,1.54-2.85,2.02,0,0-1.26.01-2.6,0v-1.68c0-.11-.04-.17-.16-.17h-2.69c0-.36-.01-5.26-.01-6.57,0-.09-.03-.16-.16-.16-.27,0-2.52.01-2.71.01v-3.74h.93c1.77,0,2.24-.84,2.43-1.49h3.36c1.31-.09,2.52-1.03,2.52-2.24v-4.58c0-1.21-1.31-2.62-2.62-2.62h-3.08v-3.55c0-1.59-.93-2.15-1.96-2.15,0,0-20.01.02-23.09.02-1.03,0-1.96.56-1.96,2.15v3.55h-3.08c-1.31,0-2.62,1.4-2.62,2.62v4.58c0,1.21,1.21,2.15,2.52,2.24h3.36c.19.65.65,1.49,2.43,1.49h.93v3.74c-.19,0-2.44-.01-2.71-.01-.13,0-.16.08-.16.16,0,1.31-.01,6.21-.01,6.57h-2.69c-.12,0-.16.06-.16.17v1.68h-2.6c-.41-.48-1.04-1.89-2.85-2.02-.36-.03-1.44-.05-2.14,0-.88.11-1.52.69-1.85,1.7C0,40.77-.01,54,0,59.98c0,1.08.98,1.73,1.65,2.35,5.04,4.78,10.53,9.99,15.4,14.95,0,.63-.01,7.6-.01,7.6h15.27v-7.15c0-.7.07-.77.64-1.39,1.6-1.74,6.22-7.05,9.65-11-.49.13-.99.2-1.51.2h-.22c-2.22-.09-4.14-.92-5.53-2.34-.1,1.55-.19,2.56-.25,2.76-.81.9-5.54,5.49-8.31,8.31-.82-.02-1.96.14-2.85.09-2.37-2.28-5.71-5.49-8.18-7.94-.57-.51-.37-1.36-.46-2.05-.61-9.82-1.63-30.29-1.61-30.25.03-2.24-.36-3.9,1.3-4.56.7-.3,18.62-.13,20.16-.12.86.01,1.27.74,1.28,1.62.07,1.32.05,3.84-.02,6.96.5-.33,1.05-.61,1.63-.82.88-.32,1.82-.48,2.78-.48.46,0,.93.04,1.4.11l.19.03.18.04c1.4.34,2.64,1.01,3.7,1.99.35.32.7.65,1.05.98.35-.33.7-.66,1.05-.98,1.06-.98,2.3-1.65,3.7-1.99l.18-.04.18-.03c.47-.07.95-.11,1.41-.11.96,0,1.9.16,2.78.48.18.07.36.14.53.22-.06-2.84-.07-5.12,0-6.36.01-.88.42-1.61,1.28-1.62,1.55-.01,19.46-.18,20.16.12,1.66.66,1.27,2.32,1.3,4.56.02-.04-1,20.43-1.61,30.25-.09.69.11,1.54-.46,2.05-2.46,2.45-5.8,5.66-8.18,7.94-.89.05-2.03-.1-2.85-.09-2.77-2.82-7.5-7.41-8.31-8.31-.05-.16-.11-.84-.19-1.89-1.25.89-2.79,1.41-4.5,1.47h-.23c-.88,0-1.72-.19-2.51-.58-.24-.12-.5-.26-.77-.43,3.47,4,8.64,9.95,10.35,11.81.57.62.64.69.64,1.39v7.15h15.27s-.01-6.96-.01-7.6c4.86-4.95,10.36-10.16,15.4-14.95.67-.63,1.65-1.27,1.65-2.35.09-5.98.07-19.21-.02-24.45Zm-11.5-22.17c2.24.02,3.96-.21,3.97,2.6-.08,1.18.19,2.81-1.09,3.55-.86.32-2.01.3-2.88.3.11-2.09,0-4.4,0-6.45Zm-27.14,6.44c-.86,0-2.01.02-2.88-.3-1.28-.74-1.02-2.37-1.09-3.55.01-2.81,1.72-2.57,3.97-2.6,0,2.06-.11,4.37,0,6.45Zm-16.12-6.44c2.25.02,3.96-.21,3.97,2.6-.08,1.18.19,2.81-1.09,3.55-.86.32-2.01.3-2.88.3.11-2.09,0-4.4,0-6.45Zm-27.14,6.44c-.86,0-2.01.02-2.88-.3-1.28-.74-1.02-2.37-1.09-3.55.01-2.81,1.72-2.57,3.97-2.6,0,2.06-.11,4.37,0,6.45Zm-4.52,45.52c-1.16-.93-4.63-4.24-5.5-5.33.05-6.82.05-23.16.05-23.96,0-1.01,2.49-1.49,2.6-.54.04,3.92.01,8.48.04,12.33,1.43.72,4.29,2.02,6.23,2.86.03,2.68.04,11.37.04,13.88-.2,1.47-3.21,1.01-3.46.76Zm26.92-38.46s-.03.04-.05.04c-.84,0-15.72-.02-17.4-.02-.02,0-.05-.02-.05-.04-.02-1.1.01-2.28-.01-3.18h0c0-.06.05-.12.12-.12,2.01,0,16.46.01,17.4.01.02,0,.04.02.04.04-.02,1.04-.04,2.19-.05,3.27Zm-19.1-4.53c-.93,0-1.69-.75-1.69-1.69v-9.9c0-.93.75-1.69,1.69-1.69h20.71c.93,0,1.69.75,1.69,1.69v9.9c0,.93-.75,1.69-1.69,1.69H14.98Zm43.16,0c-.93,0-1.69-.75-1.69-1.69v-9.9c0-.93.75-1.69,1.69-1.69h20.71c.93,0,1.69.75,1.69,1.69v9.9c0,.93-.75,1.69-1.69,1.69h-20.71Zm19.1,4.53s-.03.04-.05.04c-.84,0-15.72-.02-17.4-.02-.02,0-.05-.02-.05-.04-.02-1.1.01-2.28-.01-3.18h0c0-.06.05-.12.12-.12,2.01,0,16.46.01,17.4.01.02,0,.04.02.04.04-.02,1.04-.03,2.19-.05,3.27Zm9.34,38.46c-.25.25-3.27.71-3.46-.77,0-2.51.01-11.2.04-13.88,1.94-.84,4.8-2.15,6.23-2.86.02-3.85,0-8.41.04-12.33.11-.95,2.6-.46,2.6.54,0,.8,0,17.14.05,23.96-.87,1.1-4.34,4.41-5.5,5.34Z" style="fill: #fff;"/>
  <path d="m21.53,51.24s.01-.01,0,0c.01-.01,0-.01,0,0Z" style="fill: url(#b);"/>
  <path d="m72.99,46.84c-.21-1.11-.73-2.09-1.57-2.94-.83-.84-1.74-1.5-2.72-2-.07-.03-.13-.08-.18-.14-.05-.02-.06-.01-.05.03.02.05.07.12.17.22.01.02.02.03.02.05,0,.03.01.05.01.06.3.54.64,1.22,1.03,2.06.04.09.06.16.07.2-.32-.07-.64-.13-.97-.17-.53-.07-1.06-.03-1.57.11-.88.23-1.62.67-2.21,1.31-.32.35-.58.75-.75,1.18-.29.72-.37,1.46-.24,2.23.08.46.23.9.46,1.32.46.84,1.12,1.46,1.99,1.87.36.17.74.28,1.16.33.4.05.81.06,1.21.02.49-.04.96-.17,1.41-.38.8-.38,1.44-.92,1.93-1.61.27-.38.48-.8.63-1.26.27-.81.33-1.65.17-2.49Z" style="fill: #fff;"/>
  <path d="m70.07,50.78c-.56.51-1.2.76-1.92.74-.39-.01-.78-.1-1.16-.27-.64-.29-1.13-.74-1.46-1.37-.2-.37-.31-.76-.34-1.15-.03-.42.04-.83.2-1.22.16-.37.37-.71.65-1.01.31-.34.67-.58,1.11-.73.47-.16.95-.2,1.44-.11.4.07.76.22,1.11.45.52.34.91.81,1.16,1.42.15.36.22.72.21,1.08-.03.88-.36,1.6-1,2.17Z" style="fill: #fff;"/>
  <path d="m21.12,49.34c.15.46.36.88.63,1.26.49.7,1.13,1.23,1.93,1.61.45.21.92.34,1.41.38.41.03.81.03,1.21-.02.41-.05.8-.16,1.16-.33.87-.41,1.53-1.03,1.99-1.87.23-.42.38-.86.46-1.32.13-.77.05-1.51-.24-2.23-.18-.43-.43-.83-.75-1.18-.59-.64-1.33-1.08-2.21-1.31-.52-.14-1.04-.17-1.57-.11-.33.04-.65.1-.97.17,0-.04.02-.11.07-.2.39-.84.73-1.52,1.03-2.06.01-.01.01-.03.01-.06,0-.02.01-.04.02-.05.1-.1.15-.17.17-.22.02-.05,0-.06-.05-.03-.05.06-.11.1-.18.14-.98.49-1.89,1.16-2.72,2-.84.85-1.36,1.82-1.57,2.94-.16.83-.1,1.67.17,2.49Z" style="fill: #fff;"/>
  <path d="m22.88,48.63c-.01-.37.06-.73.21-1.08.25-.61.64-1.08,1.16-1.42.34-.23.71-.38,1.11-.45.49-.09.97-.05,1.44.11.43.15.8.39,1.11.73.27.3.49.64.65,1.01.16.39.23.79.2,1.22-.03.39-.14.77-.34,1.15-.33.62-.81,1.08-1.46,1.37-.38.17-.77.26-1.16.27-.71.01-1.35-.24-1.92-.74-.64-.59-.98-1.31-1-2.17Z" style="fill: #fff;"/>
  <path d="m64.6,51.24s.01-.01,0,0c.01-.01,0-.01,0,0Z" style="fill: url(#c);"/>
  <circle cx="19.3" cy="15.89" r="2.45" style="fill: #fff;"/>
  <circle cx="19.3" cy="15.89" r="1.35" style="fill: #fff;"/>
  <circle cx="31.6" cy="15.89" r="2.45" style="fill: #fff;"/>
  <circle cx="31.6" cy="15.89" r="1.35" style="fill: #fff;"/>
  <circle cx="62.47" cy="15.89" r="2.45" style="fill: #fff;"/>
  <circle cx="74.77" cy="15.89" r="2.45" style="fill: #fff;"/>
  <path d="m57.95,53.92c-.91-1-1.87-1.99-2.85-2.93.69-.66,1.34-1.27,1.96-1.86.87-.82,1.14-1.1,1.27-1.25.71-.8,1.14-1.75,1.28-2.83l.04-.29v-.02c.12-1.04-.03-2.06-.45-3.02-.6-1.38-1.66-2.38-3.07-2.89-.63-.23-1.31-.34-2.02-.34-.35,0-.71.03-1.07.08h-.07s-.07.03-.07.03c-1.02.25-1.93.74-2.71,1.46-1.06.98-2.12,2-3.14,3.03h-.01s-.01,0-.01,0c-1.02-1.03-2.08-2.04-3.14-3.03-.78-.72-1.69-1.21-2.71-1.46l-.07-.02h-.07c-.36-.07-.73-.09-1.07-.09-.71,0-1.38.12-2.02.34-1.41.51-2.47,1.51-3.07,2.89-.42.97-.57,1.98-.45,3.02v.02l.04.29c.14,1.07.57,2.03,1.28,2.83.14.15.4.43,1.27,1.25.62.58,1.27,1.2,1.96,1.86-.98.94-1.93,1.93-2.84,2.93-.21.23-.42.48-.61.73-1.15,1.55-1.43,3.34-.83,5.18.81,2.51,2.74,3.95,5.44,4.06h.12c.5,0,.98-.11,1.42-.33.21-.1.43-.23.67-.38.21-.14.42-.3.64-.48.58-.5,1.15-1.03,1.69-1.58.77-.79,1.19-1.22,1.26-1.29.37-.36.74-.72,1.11-1.08.37.36.74.72,1.11,1.08.07.07.49.5,1.26,1.29.54.55,1.11,1.08,1.69,1.58.21.18.43.35.64.48.24.16.46.28.67.38.45.22.93.33,1.43.33h.13c2.69-.11,4.62-1.55,5.43-4.05.6-1.84.32-3.64-.83-5.18-.21-.26-.42-.51-.63-.74Zm.18,4.59c-.59,1.82-1.86,2.77-3.83,2.85-.25.01-.49-.04-.72-.15-.14-.07-.31-.16-.49-.28-.14-.09-.29-.2-.44-.34-.55-.47-1.07-.96-1.58-1.48-.85-.87-1.28-1.3-1.28-1.31-.78-.76-1.56-1.52-2.34-2.28-.78.76-1.56,1.52-2.34,2.28,0,0-.43.44-1.28,1.31-.51.52-1.03,1.01-1.58,1.48-.15.13-.3.24-.44.34-.18.12-.34.21-.49.28-.23.11-.47.16-.72.15-1.97-.08-3.25-1.03-3.83-2.85-.43-1.3-.24-2.5.57-3.59.15-.21.31-.4.49-.59.96-1.05,1.96-2.07,2.98-3.06.44-.42.81-.77,1.11-1.06-1.1-1.05-2.2-2.09-3.3-3.13-.61-.58-1-.96-1.16-1.14-.48-.54-.76-1.17-.85-1.89v-.03c-.13-.82-.04-1.62.29-2.38.41-.95,1.09-1.59,2.05-1.94.67-.24,1.42-.3,2.23-.18.73.18,1.38.53,1.94,1.04,1.05.97,2.08,1.96,3.09,2.98.47.48.89.89,1.25,1.24.36-.35.77-.77,1.25-1.24,1.01-1.01,2.04-2.01,3.09-2.98.56-.52,1.2-.86,1.94-1.04.81-.13,1.56-.07,2.23.18.96.35,1.64.99,2.05,1.94.33.76.42,1.55.28,2.38v.03c-.08.72-.37,1.35-.85,1.89-.16.18-.55.56-1.16,1.14-1.1,1.04-2.2,2.08-3.3,3.13.3.29.67.64,1.11,1.06,1.03.99,2.02,2.01,2.98,3.06.17.19.34.39.49.59.79,1.09.98,2.28.56,3.59Z" style="fill: #fff;"/>
</svg>